<svg aria-hidden="true" style="position: absolute; width: 0; height: 0; overflow: hidden;" version="1.1" xmlns="http://www.w3.org/2000/svg" xmlns:xlink="http://www.w3.org/1999/xlink">
<defs>
<symbol id="user" viewBox="0 0 32 32">
<path d="M16 0c2.122 0 4.157 0.843 5.657 2.343s2.343 3.535 2.343 5.657-0.843 4.157-2.343 5.657c-1.5 1.5-3.535 2.343-5.657 2.343s-4.157-0.843-5.657-2.343c-1.5-1.5-2.343-3.535-2.343-5.657s0.843-4.157 2.343-5.657c1.5-1.5 3.535-2.343 5.657-2.343zM16 20c8.84 0 16 3.58 16 8v4h-32v-4c0-4.42 7.16-8 16-8z"></path>
</symbol>
<symbol id="heart" viewBox="0 0 36 32">
<path d="M19.143 5.539c-5.877-9.078-17.772-4.133-17.772 5.756 0 7.426 16.307 19.042 17.772 20.552 1.475-1.51 16.971-13.126 16.971-20.552 0-9.814-11.083-14.834-16.971-5.756z"></path>
</symbol>
<symbol id="list" viewBox="0 0 32 32">
<path d="M23 1h-4v-0.501c0-0.276-0.224-0.5-0.5-0.5s-0.5 0.224-0.5 0.5v0 0.5h-4v-0.499c0-0.276-0.224-0.5-0.5-0.5s-0.5 0.224-0.5 0.5v0 0.5h-4v-0.5c-0.008-0.27-0.229-0.485-0.5-0.485s-0.491 0.215-0.5 0.484l-0 0.001v0.5h-4c-0.276 0-0.5 0.224-0.5 0.5v30c0 0.276 0.224 0.5 0.5 0.5h19c0.276 0 0.5-0.224 0.5-0.5v-30c0-0.276-0.224-0.5-0.5-0.5zM22.5 31h-18v-28.999h3.5v1.5c0 0.276 0.224 0.5 0.5 0.5s0.5-0.224 0.5-0.5v0-1.5h4v1.5c0.008 0.27 0.229 0.485 0.5 0.485s0.491-0.215 0.5-0.484l0-0.001v-1.5h4v1.5c0 0.276 0.224 0.5 0.5 0.5s0.5-0.224 0.5-0.5v0-1.5h3.5v29z"></path>
<path d="M11.5 5.5h-4.999c-0.276 0-0.5 0.224-0.5 0.5v5c0 0.276 0.224 0.5 0.5 0.5h5c0.276 0 0.5-0.224 0.5-0.5v-5.001c0-0.276-0.224-0.5-0.5-0.5zM11 10.501h-4v-4h4v4zM11.5 12.5h-4.999c-0.276 0-0.5 0.224-0.5 0.5v5c0 0.276 0.224 0.5 0.5 0.5h5c0.276 0 0.5-0.224 0.5-0.5v-5c0-0.276-0.224-0.5-0.5-0.5zM11 17.499h-4v-4h4v4zM11.5 19.5h-4.999c-0.276 0-0.5 0.224-0.5 0.5v5c0 0.276 0.224 0.5 0.5 0.5h5c0.276 0 0.5-0.224 0.5-0.5v-5c0-0.276-0.224-0.5-0.5-0.5zM11 24.5h-4v-4h4v4zM13.5 6.5c0 0.276 0.224 0.5 0.5 0.5h6c0.276 0 0.5-0.224 0.5-0.5s-0.224-0.5-0.5-0.5v0h-6c-0.276 0-0.5 0.224-0.5 0.5zM20 10h-6c-0.276 0-0.5 0.224-0.5 0.5s0.224 0.5 0.5 0.5h6c0.276 0 0.5-0.224 0.5-0.5s-0.224-0.5-0.5-0.5v0zM14 9h2.5c0.276 0 0.5-0.224 0.5-0.5s-0.224-0.5-0.5-0.5h-2.5c-0.276 0-0.5 0.224-0.5 0.5s0.224 0.5 0.5 0.5v0zM19 9c0.276 0 0.5-0.224 0.5-0.5s-0.224-0.5-0.5-0.5h-1c-0.276 0-0.5 0.224-0.5 0.5s0.224 0.5 0.5 0.5h1zM20 13h-6c-0.27 0.008-0.485 0.229-0.485 0.5s0.215 0.491 0.484 0.5l0.001 0h6c0.276 0 0.5-0.224 0.5-0.5s-0.224-0.5-0.5-0.5v0zM20 17h-6c-0.27 0.008-0.485 0.229-0.485 0.5s0.215 0.491 0.484 0.5l0.001 0h6c0.276 0 0.5-0.224 0.5-0.5s-0.224-0.5-0.5-0.5v0zM14 16h2.5c0.276 0 0.5-0.224 0.5-0.5s-0.224-0.5-0.5-0.5h-2.5c-0.276 0-0.5 0.224-0.5 0.5s0.224 0.5 0.5 0.5v0zM19 16c0.276 0 0.5-0.224 0.5-0.5s-0.224-0.5-0.5-0.5h-1c-0.276 0-0.5 0.224-0.5 0.5s0.224 0.5 0.5 0.5h1zM20 20h-6c-0.276 0-0.5 0.224-0.5 0.5s0.224 0.5 0.5 0.5h6c0.276 0 0.5-0.224 0.5-0.5s-0.224-0.5-0.5-0.5v0zM20 24h-6c-0.276 0-0.5 0.224-0.5 0.5s0.224 0.5 0.5 0.5h6c0.276 0 0.5-0.224 0.5-0.5s-0.224-0.5-0.5-0.5v0zM14 23h2.5c0.276 0 0.5-0.224 0.5-0.5s-0.224-0.5-0.5-0.5h-2.5c-0.276 0-0.5 0.224-0.5 0.5s0.224 0.5 0.5 0.5v0zM19 23c0.276 0 0.5-0.224 0.5-0.5s-0.224-0.5-0.5-0.5h-1c-0.276 0-0.5 0.224-0.5 0.5s0.224 0.5 0.5 0.5h1zM26.75 6.5c-0.966 0-1.75 0.783-1.75 1.75v14.75c0.003 0.017 0.006 0.032 0.010 0.046l-0.001-0.003c-0 0.006-0.001 0.012-0.001 0.019s0 0.013 0.001 0.020l-0-0.001 0.5 3c0.040 0.24 0.247 0.417 0.491 0.418h1.5c0.245 0 0.453-0.177 0.493-0.418l0.5-3c0-0.006 0.001-0.012 0.001-0.019s-0-0.013-0.001-0.020l0 0.001c0.003-0.012 0.005-0.027 0.007-0.042l0-0.002v-14.75c0-0.966-0.783-1.75-1.75-1.75v0zM27.077 25.5h-0.654l-0.333-2h1.319l-0.333 2zM27.5 22.5h-1.5v-12h1.5v12zM27.5 9.5h-1.5v-1.25c0-0.414 0.336-0.75 0.75-0.75s0.75 0.336 0.75 0.75v0 1.25z"></path>
</symbol>
<symbol id="earrings" viewBox="0 0 32 32">
<path d="M11.595 19.983c-0.304-0.516-0.856-0.857-1.488-0.858h-2.263v-1.358c1.067-0.208 1.906-1.114 1.992-2.231 0.001-0.011 0.001-0.024 0.001-0.036 0-0.259-0.21-0.469-0.469-0.469-0.246 0-0.448 0.19-0.467 0.431l-0 0.002c-0.067 0.791-0.724 1.408-1.527 1.411h-0c-0.845-0.001-1.53-0.686-1.531-1.531v-0c0.001-0.846 0.687-1.531 1.533-1.531 0.281 0 0.545 0.076 0.771 0.208l-0.007-0.004c0.067 0.040 0.148 0.063 0.235 0.063 0.259 0 0.469-0.21 0.469-0.469 0-0.172-0.093-0.323-0.232-0.405l-0.002-0.001c-0.221-0.13-0.478-0.229-0.751-0.283l-0.016-0.003v-1.367c0.639-0.206 1.093-0.795 1.094-1.491v-0c0-0.699-0.462-1.293-1.097-1.492l0.009-0.974c0.002-0.159 0.116-0.291 0.267-0.321l0.002-0c1.687-0.352 2.912-1.866 2.912-3.6 0-1.991-1.668-3.674-3.643-3.675h-0.002c-1.423 0-2.748 0.903-3.376 2.3-0.026 0.056-0.041 0.122-0.041 0.192 0 0.259 0.21 0.469 0.469 0.469 0.189 0 0.352-0.112 0.426-0.274l0.001-0.003c0.477-1.061 1.467-1.747 2.522-1.747h0.002c1.306 0.001 2.705 1.101 2.705 2.738 0 1.292-0.911 2.421-2.166 2.683-0.58 0.119-1.011 0.624-1.015 1.229v0l-0.010 0.985c-0.637 0.207-1.090 0.796-1.091 1.49v0c0.001 0.695 0.455 1.284 1.083 1.487l0.011 0.003v1.367c-1.147 0.229-1.999 1.227-2 2.424v0c0.002 1.197 0.854 2.194 1.985 2.421l0.016 0.003v1.358h-2.264c-0.611 0-1.181 0.329-1.488 0.858l-2.73 4.719c-0.145 0.247-0.23 0.544-0.23 0.861s0.086 0.614 0.235 0.869l-0.004-0.008 2.73 4.719c0.304 0.516 0.856 0.857 1.487 0.858h5.465c0.611 0 1.181-0.329 1.488-0.858l2.73-4.719c0.145-0.247 0.23-0.544 0.23-0.861s-0.086-0.614-0.235-0.869l0.004 0.008-2.73-4.719zM7.375 9.437c0.331 0.018 0.592 0.291 0.592 0.625s-0.261 0.606-0.59 0.625l-0.002 0c-0.345-0.001-0.624-0.28-0.625-0.624v-0c0-0.345 0.28-0.625 0.625-0.625zM13.514 25.954l-2.73 4.719c-0.138 0.235-0.389 0.39-0.677 0.39h-5.464c-0.287-0.001-0.538-0.155-0.674-0.386l-0.002-0.004-2.731-4.719c-0.066-0.112-0.105-0.247-0.105-0.391s0.039-0.279 0.107-0.395l-0.002 0.004 2.73-4.719c0.138-0.235 0.389-0.39 0.677-0.39h5.464c0.277 0 0.537 0.149 0.676 0.39l2.73 4.719c0.066 0.112 0.105 0.247 0.105 0.391s-0.039 0.279-0.107 0.395l0.002-0.004z"></path>
<path d="M9.712 22.604c-0.193-0.329-0.545-0.546-0.947-0.547h-2.779c-0.403 0.001-0.754 0.218-0.944 0.542l-0.003 0.005-1.389 2.406c-0.092 0.157-0.146 0.346-0.146 0.547s0.054 0.39 0.149 0.552l-0.003-0.005 0.219 0.38c0.084 0.134 0.231 0.222 0.399 0.222 0.259 0 0.469-0.21 0.469-0.469 0-0.081-0.021-0.158-0.057-0.225l0.001 0.002-0.219-0.38c-0.013-0.022-0.021-0.049-0.021-0.078s0.008-0.056 0.021-0.079l-0 0.001 1.389-2.406c0.028-0.047 0.078-0.078 0.135-0.078h2.778c0.056 0 0.108 0.030 0.135 0.078l1.39 2.407c0.027 0.048 0.027 0.108 0 0.156l-1.39 2.406c-0.028 0.047-0.078 0.078-0.135 0.078h-2.778c-0.117 0.010-0.172-0.151-0.223-0.229-0.084-0.133-0.231-0.22-0.397-0.22-0.259 0-0.469 0.21-0.469 0.469 0 0.080 0.020 0.156 0.056 0.222l-0.001-0.003 0.087 0.151c0.193 0.329 0.545 0.547 0.948 0.547h2.778c0.403-0.001 0.754-0.218 0.944-0.542l0.003-0.005 1.39-2.406c0.092-0.157 0.146-0.346 0.146-0.547s-0.054-0.39-0.149-0.552l0.003 0.005-1.39-2.406zM31.575 24.702l-0.795-1.374c-0.083-0.141-0.233-0.234-0.406-0.234-0.259 0-0.469 0.21-0.469 0.469 0 0.086 0.023 0.167 0.064 0.237l-0.001-0.002 0.795 1.374c0.066 0.112 0.105 0.247 0.105 0.391s-0.039 0.279-0.107 0.395l0.002-0.004-2.73 4.719c-0.138 0.235-0.389 0.39-0.677 0.39h-5.463c-0.287-0-0.538-0.155-0.675-0.386l-0.002-0.004-2.73-4.719c-0.066-0.112-0.105-0.247-0.105-0.391s0.039-0.279 0.107-0.395l-0.002 0.004 2.729-4.719c0.138-0.235 0.389-0.39 0.677-0.39h5.464c0.278 0 0.537 0.149 0.676 0.39l0.85 1.47c0.083 0.141 0.233 0.234 0.406 0.234 0.259 0 0.469-0.21 0.469-0.469 0-0.086-0.023-0.167-0.064-0.237l0.001 0.002-0.85-1.47c-0.304-0.516-0.856-0.857-1.487-0.858h-2.263v-1.358c1.146-0.229 1.998-1.226 2-2.423v-0c-0.002-1.197-0.854-2.195-1.984-2.421l-0.016-0.003v-1.367c0.639-0.206 1.093-0.795 1.093-1.491v-0c0-0.699-0.462-1.293-1.097-1.492l0.010-0.974c0.002-0.159 0.116-0.291 0.267-0.321l0.002-0c1.687-0.352 2.912-1.866 2.912-3.6-0-0.147-0.009-0.291-0.025-0.433l0.002 0.017c-0.028-0.235-0.226-0.415-0.466-0.415-0.259 0-0.469 0.21-0.469 0.469 0 0.019 0.001 0.037 0.003 0.055l-0-0.002c0.011 0.102 0.017 0.206 0.017 0.309 0 1.293-0.911 2.421-2.166 2.683-0.58 0.119-1.010 0.623-1.015 1.229v0l-0.009 0.985c-0.637 0.207-1.090 0.795-1.091 1.49v0c0.001 0.695 0.455 1.284 1.083 1.487l0.011 0.003v1.367c-1.147 0.229-1.999 1.227-2 2.424v0c0.002 1.197 0.854 2.194 1.984 2.421l0.016 0.003v1.358h-2.263c-0.612 0-1.182 0.329-1.488 0.858l-2.73 4.719c-0.145 0.247-0.23 0.544-0.23 0.861s0.086 0.614 0.235 0.869l-0.004-0.008 2.73 4.719c0.304 0.516 0.856 0.857 1.488 0.858h5.464c0.611 0 1.181-0.329 1.488-0.858l2.73-4.719c0.145-0.247 0.23-0.544 0.23-0.861s-0.086-0.614-0.235-0.869l0.004 0.008zM24.625 9.438c0.345 0 0.625 0.28 0.625 0.625s-0.28 0.625-0.625 0.625c-0.345-0.001-0.624-0.28-0.625-0.625v-0c0-0.345 0.28-0.625 0.625-0.625zM23.093 15.344c0.001-0.845 0.686-1.531 1.531-1.531h0c0.845 0.001 1.531 0.686 1.531 1.531v0c-0.001 0.845-0.686 1.531-1.531 1.531h-0c-0.845-0.001-1.531-0.686-1.531-1.531v-0zM21.495 2.92c0.231 0.105 0.514 0.003 0.62-0.235 0.477-1.062 1.466-1.748 2.521-1.748h0.002c0.67 0 1.348 0.283 1.86 0.775 0.085 0.085 0.202 0.137 0.331 0.137 0.259 0 0.469-0.21 0.469-0.469 0-0.136-0.058-0.258-0.15-0.344l-0-0c-0.684-0.658-1.599-1.037-2.508-1.037h-0.002c-1.424 0-2.749 0.903-3.377 2.3-0.026 0.057-0.041 0.123-0.041 0.192 0 0.189 0.112 0.352 0.274 0.426l0.003 0.001z"></path>
<path d="M26.014 22.057h-2.779c-0.403 0.001-0.754 0.218-0.944 0.542l-0.003 0.005-1.389 2.406c-0.092 0.157-0.146 0.346-0.146 0.547s0.054 0.39 0.149 0.552l-0.003-0.005 1.389 2.406c0.193 0.329 0.545 0.546 0.947 0.547h2.779c0.403-0.001 0.754-0.218 0.944-0.542l0.003-0.005 1.389-2.406c0.092-0.157 0.146-0.346 0.146-0.547s-0.054-0.39-0.149-0.552l0.003 0.005-1.39-2.406c-0.193-0.329-0.544-0.546-0.947-0.547h-0zM27.539 25.635l-1.39 2.406c-0.027 0.047-0.078 0.078-0.135 0.078h-2.779c-0.057-0-0.108-0.031-0.135-0.077l-0-0.001-1.389-2.407c-0.013-0.022-0.021-0.049-0.021-0.078s0.008-0.056 0.021-0.079l-0 0.001 1.39-2.406c0.027-0.047 0.078-0.078 0.135-0.078h2.779c0.056 0 0.107 0.030 0.135 0.078l1.389 2.407c0.027 0.048 0.027 0.108 0 0.156z"></path>
</symbol>
<symbol id="delivery" viewBox="0 0 32 32">
<path d="M28 17.987c-0.276 0-0.5 0.224-0.5 0.5v3.504h-0.795c-0.186-1.584-1.521-2.802-3.14-2.802s-2.954 1.218-3.138 2.787l-0.001 0.015h-10.425v-14.5h17.5v1.573c0 0.276 0.224 0.5 0.5 0.5s0.5-0.224 0.5-0.5v0-2.072c0-0.276-0.224-0.5-0.5-0.5h-18.5c-0.276 0-0.5 0.224-0.5 0.5v0.5h-5.726c-1.255 0.002-2.273 1.019-2.274 2.274v0.726c0 0.276 0.224 0.5 0.5 0.5h0.582l-0.381 4.582c-0.984 0.262-1.697 1.143-1.701 2.191v4.226c0 0.276 0.224 0.5 0.5 0.5h1.013c0.134 1.683 1.532 2.998 3.238 2.998s3.104-1.315 3.237-2.986l0.001-0.011c0.005 0 0.008 0.002 0.012 0.002h1c0 0.276 0.224 0.5 0.5 0.5h10.97c0.309 1.447 1.577 2.516 3.095 2.516s2.785-1.069 3.091-2.495l0.004-0.021h1.341c0.276 0 0.5-0.224 0.5-0.5v-4.006c0-0.276-0.224-0.5-0.5-0.5zM4.75 24.491c-1.243 0-2.25-1.007-2.25-2.25s1.007-2.25 2.25-2.25v0c1.243 0 2.25 1.007 2.25 2.25s-1.007 2.25-2.25 2.25v0zM9 21.49h-1c-0.032 0.003-0.062 0.010-0.090 0.019l0.003-0.001c-0.343-1.453-1.628-2.519-3.163-2.519-1.528 0-2.81 1.056-3.155 2.479l-0.005 0.022h-0.591v-3.726c0.001-0.703 0.57-1.273 1.273-1.274h6.726v5zM9 15.49h-6.29l0.375-4.5h5.915v4.5zM9 9.991h-6.999v-0.226c0.001-0.703 0.571-1.273 1.274-1.274h5.726v1.5zM25.722 22.471c-0.066 1.138-1.005 2.036-2.153 2.036-0.001 0-0.003 0-0.004 0h0c-1.061-0.002-1.942-0.769-2.122-1.778l-0.002-0.013c0.037-0.064 0.059-0.141 0.059-0.223 0-0.099-0.032-0.19-0.086-0.264l0.001 0.001c0.083-1.123 1.015-2.003 2.152-2.003 1.191 0 2.157 0.966 2.157 2.157 0 0.031-0.001 0.062-0.002 0.093l0-0.004z"></path>
<path d="M27.5 10.491h-7c-0.005-0-0.010-0-0.015-0-0.276 0-0.5 0.224-0.5 0.5s0.224 0.5 0.5 0.5c0.005 0 0.011-0 0.016-0l-0.001 0h7c0.27-0.008 0.485-0.229 0.485-0.5s-0.215-0.491-0.484-0.5l-0.001-0zM28.5 15.991h-11.001c-0.27 0.008-0.485 0.229-0.485 0.5s0.215 0.491 0.484 0.5l0.001 0h11c0.276 0 0.5-0.224 0.5-0.5s-0.224-0.5-0.5-0.5v0zM27.5 12.991h-5.5c-0.27 0.008-0.485 0.229-0.485 0.5s0.215 0.491 0.484 0.5l0.001 0h5.5c0.005 0 0.010 0 0.015 0 0.276 0 0.5-0.224 0.5-0.5s-0.224-0.5-0.5-0.5c-0.005 0-0.011 0-0.016 0l0.001-0zM29.5 11.49h1c0.27-0.008 0.485-0.229 0.485-0.5s-0.215-0.491-0.484-0.5l-0.001-0h-1.001c-0.27 0.008-0.485 0.229-0.485 0.5s0.215 0.491 0.484 0.5l0.001 0zM31 15.991h-1c-0.27 0.008-0.485 0.229-0.485 0.5s0.215 0.491 0.484 0.5l0.001 0h1c0.276 0 0.5-0.224 0.5-0.5s-0.224-0.5-0.5-0.5v0zM31.5 12.991h-2c-0.27 0.008-0.485 0.229-0.485 0.5s0.215 0.491 0.484 0.5l0.001 0h2c0.005 0 0.010 0 0.015 0 0.276 0 0.5-0.224 0.5-0.5s-0.224-0.5-0.5-0.5c-0.005 0-0.011 0-0.016 0l0.001-0z"></path>
</symbol>
<symbol id="search" viewBox="0 0 32 32">
<path d="M28 25.333l-6.872-6.872c1.27-1.931 1.779-4.264 1.428-6.549s-1.538-4.357-3.329-5.817c-1.792-1.46-4.062-2.203-6.37-2.086s-4.491 1.087-6.125 2.722-2.604 3.817-2.722 6.125c-0.118 2.308 0.626 4.578 2.086 6.37s3.533 2.978 5.817 3.329c2.284 0.351 4.618-0.158 6.549-1.428l6.872 6.872 2.667-2.667zM6.667 13.333c0-3.676 2.991-6.667 6.667-6.667s6.667 2.991 6.667 6.667c0 3.676-2.991 6.667-6.667 6.667s-6.667-2.991-6.667-6.667z"></path>
</symbol>
</defs>
</svg>
