<svg aria-hidden="true" style="position: absolute; width: 0; height: 0; overflow: hidden;" version="1.1" xmlns="http://www.w3.org/2000/svg" xmlns:xlink="http://www.w3.org/1999/xlink">
<defs>
<symbol id="discord" viewBox="0 0 32 32">
<path fill="#7289da" style="fill: var(--color1, #7289da)" d="M26.963 0c1.875 0 3.387 1.516 3.476 3.3v28.7l-3.569-3.031-1.96-1.784-2.139-1.864 0.893 2.94h-18.717c-1.869 0-3.387-1.42-3.387-3.301v-21.653c0-1.784 1.52-3.303 3.393-3.303h22zM18.805 7.577h-0.040l-0.269 0.267c2.764 0.8 4.101 2.049 4.101 2.049-1.781-0.891-3.387-1.336-4.992-1.516-1.16-0.18-2.32-0.085-3.3 0h-0.267c-0.627 0-1.96 0.267-3.747 0.98-0.623 0.271-0.98 0.448-0.98 0.448s1.336-1.336 4.28-2.049l-0.18-0.18c0 0-2.229-0.085-4.636 1.693 0 0-2.407 4.192-2.407 9.36 0 0 1.333 2.32 4.991 2.408 0 0 0.533-0.711 1.073-1.336-2.053-0.624-2.853-1.872-2.853-1.872s0.179 0.088 0.447 0.267h0.080c0.040 0 0.059 0.020 0.080 0.040v0.008c0.021 0.021 0.040 0.040 0.080 0.040 0.44 0.181 0.88 0.36 1.24 0.533 0.621 0.269 1.42 0.537 2.4 0.715 1.24 0.18 2.661 0.267 4.28 0 0.8-0.18 1.6-0.356 2.4-0.713 0.52-0.267 1.16-0.533 1.863-0.983 0 0-0.8 1.248-2.94 1.872 0.44 0.621 1.060 1.333 1.060 1.333 3.659-0.080 5.080-2.4 5.16-2.301 0-5.16-2.42-9.36-2.42-9.36-2.18-1.619-4.22-1.68-4.58-1.68zM19.029 13.461c0.937 0 1.693 0.8 1.693 1.78 0 0.987-0.76 1.787-1.693 1.787s-1.693-0.8-1.693-1.779c0.003-0.987 0.764-1.784 1.693-1.788zM12.972 13.461c0.933 0 1.688 0.8 1.688 1.78 0 0.987-0.76 1.787-1.693 1.787s-1.693-0.8-1.693-1.779c0-0.987 0.76-1.784 1.699-1.788z"></path>
</symbol>
<symbol id="instagram" viewBox="0 0 32 32">
<path fill="#e4405f" style="fill: var(--color2, #e4405f)" d="M16 0c-4.347 0-4.889 0.020-6.596 0.096-1.704 0.080-2.864 0.348-3.884 0.744-1.052 0.408-1.945 0.956-2.835 1.845s-1.439 1.781-1.845 2.835c-0.396 1.020-0.665 2.18-0.744 3.884-0.080 1.707-0.096 2.249-0.096 6.596s0.020 4.889 0.096 6.596c0.080 1.703 0.348 2.864 0.744 3.884 0.408 1.051 0.956 1.945 1.845 2.835 0.889 0.888 1.781 1.439 2.835 1.845 1.021 0.395 2.181 0.665 3.884 0.744 1.707 0.080 2.249 0.096 6.596 0.096s4.889-0.020 6.596-0.096c1.703-0.080 2.864-0.349 3.884-0.744 1.051-0.408 1.945-0.957 2.835-1.845 0.888-0.889 1.439-1.78 1.845-2.835 0.395-1.020 0.665-2.181 0.744-3.884 0.080-1.707 0.096-2.249 0.096-6.596s-0.020-4.889-0.096-6.596c-0.080-1.703-0.349-2.865-0.744-3.884-0.408-1.052-0.957-1.945-1.845-2.835-0.889-0.889-1.78-1.439-2.835-1.845-1.020-0.396-2.181-0.665-3.884-0.744-1.707-0.080-2.249-0.096-6.596-0.096zM16 2.88c4.271 0 4.78 0.021 6.467 0.095 1.56 0.073 2.407 0.332 2.969 0.553 0.749 0.289 1.28 0.636 1.843 1.195 0.559 0.56 0.905 1.092 1.195 1.841 0.219 0.563 0.48 1.409 0.551 2.969 0.076 1.688 0.093 2.195 0.093 6.467s-0.020 4.78-0.099 6.467c-0.081 1.56-0.341 2.407-0.561 2.969-0.299 0.749-0.639 1.28-1.199 1.843-0.559 0.559-1.099 0.905-1.84 1.195-0.56 0.219-1.42 0.48-2.98 0.551-1.699 0.076-2.199 0.093-6.479 0.093-4.281 0-4.781-0.020-6.479-0.099-1.561-0.081-2.421-0.341-2.981-0.561-0.759-0.299-1.28-0.639-1.839-1.199-0.561-0.559-0.92-1.099-1.2-1.84-0.22-0.56-0.479-1.42-0.56-2.98-0.060-1.68-0.081-2.199-0.081-6.459 0-4.261 0.021-4.781 0.081-6.481 0.081-1.56 0.34-2.419 0.56-2.979 0.28-0.76 0.639-1.28 1.2-1.841 0.559-0.559 1.080-0.919 1.839-1.197 0.56-0.221 1.401-0.481 2.961-0.561 1.7-0.060 2.2-0.080 6.479-0.080zM16 7.784c-4.54 0-8.216 3.68-8.216 8.216 0 4.54 3.68 8.216 8.216 8.216 4.54 0 8.216-3.68 8.216-8.216 0-4.54-3.68-8.216-8.216-8.216zM16 21.333c-2.947 0-5.333-2.387-5.333-5.333s2.387-5.333 5.333-5.333 5.333 2.387 5.333 5.333-2.387 5.333-5.333 5.333zM26.461 7.46c0 1.060-0.861 1.92-1.92 1.92-1.060 0-1.92-0.861-1.92-1.92s0.861-1.919 1.92-1.919c1.057-0.001 1.92 0.86 1.92 1.919z"></path>
</symbol>
<symbol id="telegram" viewBox="0 0 32 32">
<path fill="#2ca5e0" style="fill: var(--color3, #2ca5e0)" d="M31.88 5.053l-4.813 22.733c-0.333 1.613-1.307 2-2.667 1.253l-7.333-5.427-3.547 3.427c-0.4 0.4-0.733 0.747-1.467 0.747-0.96 0-0.8-0.36-1.12-1.267l-2.533-8.253-7.267-2.267c-1.573-0.467-1.587-1.547 0.347-2.333l28.347-10.933c1.293-0.573 2.533 0.32 2.053 2.32z"></path>
</symbol>
<symbol id="user" viewBox="0 0 32 32">
<path d="M16 0c4.418 0 8 3.582 8 8s-3.582 8-8 8v0c-4.418 0-8-3.582-8-8s3.582-8 8-8v0zM16 20c8.84 0 16 3.58 16 8v4h-32v-4c0-4.42 7.16-8 16-8z"></path>
</symbol>
<symbol id="heart" viewBox="0 0 36 32">
<path d="M19.142 5.54c-5.873-9.082-17.771-4.134-17.771 5.756 0 7.424 16.307 19.042 17.771 20.553 1.476-1.51 16.971-13.126 16.971-20.553 0-9.813-11.083-14.835-16.971-5.756z"></path>
</symbol>
<symbol id="list" viewBox="0 0 32 32">
<path d="M23 1h-4v-0.501c0-0.276-0.224-0.5-0.5-0.5s-0.5 0.224-0.5 0.5v0 0.5h-4v-0.499c0-0.276-0.224-0.5-0.5-0.5s-0.5 0.224-0.5 0.5v0 0.5h-4v-0.5c-0.008-0.27-0.229-0.485-0.5-0.485s-0.491 0.215-0.5 0.484l-0 0.001v0.5h-4c-0.276 0-0.5 0.224-0.5 0.5v30c0 0.276 0.224 0.5 0.5 0.5h19c0.276 0 0.5-0.224 0.5-0.5v-30c0-0.276-0.224-0.5-0.5-0.5zM22.5 31h-18v-28.999h3.5v1.5c0 0.276 0.224 0.5 0.5 0.5s0.5-0.224 0.5-0.5v0-1.5h4v1.5c0.008 0.27 0.229 0.485 0.5 0.485s0.491-0.215 0.5-0.484l0-0.001v-1.5h4v1.5c0 0.276 0.224 0.5 0.5 0.5s0.5-0.224 0.5-0.5v0-1.5h3.5v29z"></path>
<path d="M11.5 5.5h-4.999c-0.276 0-0.5 0.224-0.5 0.5v5c0 0.276 0.224 0.5 0.5 0.5h5c0.276 0 0.5-0.224 0.5-0.5v-5.001c0-0.276-0.224-0.5-0.5-0.5zM11 10.501h-4v-4h4v4zM11.5 12.5h-4.999c-0.276 0-0.5 0.224-0.5 0.5v5c0 0.276 0.224 0.5 0.5 0.5h5c0.276 0 0.5-0.224 0.5-0.5v-5c0-0.276-0.224-0.5-0.5-0.5zM11 17.499h-4v-4h4v4zM11.5 19.5h-4.999c-0.276 0-0.5 0.224-0.5 0.5v5c0 0.276 0.224 0.5 0.5 0.5h5c0.276 0 0.5-0.224 0.5-0.5v-5c0-0.276-0.224-0.5-0.5-0.5zM11 24.5h-4v-4h4v4zM13.5 6.5c0 0.276 0.224 0.5 0.5 0.5h6c0.276 0 0.5-0.224 0.5-0.5s-0.224-0.5-0.5-0.5v0h-6c-0.276 0-0.5 0.224-0.5 0.5zM20 10h-6c-0.276 0-0.5 0.224-0.5 0.5s0.224 0.5 0.5 0.5h6c0.276 0 0.5-0.224 0.5-0.5s-0.224-0.5-0.5-0.5v0zM14 9h2.5c0.276 0 0.5-0.224 0.5-0.5s-0.224-0.5-0.5-0.5h-2.5c-0.276 0-0.5 0.224-0.5 0.5s0.224 0.5 0.5 0.5v0zM19 9c0.276 0 0.5-0.224 0.5-0.5s-0.224-0.5-0.5-0.5h-1c-0.276 0-0.5 0.224-0.5 0.5s0.224 0.5 0.5 0.5h1zM20 13h-6c-0.27 0.008-0.485 0.229-0.485 0.5s0.215 0.491 0.484 0.5l0.001 0h6c0.276 0 0.5-0.224 0.5-0.5s-0.224-0.5-0.5-0.5v0zM20 17h-6c-0.27 0.008-0.485 0.229-0.485 0.5s0.215 0.491 0.484 0.5l0.001 0h6c0.276 0 0.5-0.224 0.5-0.5s-0.224-0.5-0.5-0.5v0zM14 16h2.5c0.276 0 0.5-0.224 0.5-0.5s-0.224-0.5-0.5-0.5h-2.5c-0.276 0-0.5 0.224-0.5 0.5s0.224 0.5 0.5 0.5v0zM19 16c0.276 0 0.5-0.224 0.5-0.5s-0.224-0.5-0.5-0.5h-1c-0.276 0-0.5 0.224-0.5 0.5s0.224 0.5 0.5 0.5h1zM20 20h-6c-0.276 0-0.5 0.224-0.5 0.5s0.224 0.5 0.5 0.5h6c0.276 0 0.5-0.224 0.5-0.5s-0.224-0.5-0.5-0.5v0zM20 24h-6c-0.276 0-0.5 0.224-0.5 0.5s0.224 0.5 0.5 0.5h6c0.276 0 0.5-0.224 0.5-0.5s-0.224-0.5-0.5-0.5v0zM14 23h2.5c0.276 0 0.5-0.224 0.5-0.5s-0.224-0.5-0.5-0.5h-2.5c-0.276 0-0.5 0.224-0.5 0.5s0.224 0.5 0.5 0.5v0zM19 23c0.276 0 0.5-0.224 0.5-0.5s-0.224-0.5-0.5-0.5h-1c-0.276 0-0.5 0.224-0.5 0.5s0.224 0.5 0.5 0.5h1zM26.75 6.5c-0.966 0-1.75 0.783-1.75 1.75v0 14.75c0.003 0.017 0.006 0.032 0.010 0.046l-0.001-0.003c-0 0.006-0.001 0.012-0.001 0.019s0 0.013 0.001 0.020l-0-0.001 0.5 3c0.040 0.24 0.247 0.417 0.491 0.418h1.5c0.245 0 0.453-0.177 0.493-0.418l0.5-3c0-0.006 0.001-0.012 0.001-0.019s-0-0.013-0.001-0.020l0 0.001c0.003-0.012 0.005-0.027 0.007-0.042l0-0.002v-14.75c0-0.966-0.783-1.75-1.75-1.75v0zM27.077 25.5h-0.654l-0.333-2h1.319l-0.333 2zM27.5 22.5h-1.5v-12h1.5v12zM27.5 9.5h-1.5v-1.25c0-0.414 0.336-0.75 0.75-0.75s0.75 0.336 0.75 0.75v0 1.25z"></path>
</symbol>
<symbol id="earrings" viewBox="0 0 32 32">
<path d="M11.595 19.983c-0.304-0.516-0.856-0.857-1.488-0.858h-2.263v-1.358c1.067-0.208 1.906-1.114 1.992-2.231 0.001-0.011 0.001-0.024 0.001-0.036 0-0.259-0.21-0.469-0.469-0.469-0.246 0-0.448 0.19-0.467 0.431l-0 0.002c-0.067 0.791-0.724 1.408-1.527 1.411h-0c-0.845-0.001-1.53-0.686-1.531-1.531v-0c0.001-0.846 0.687-1.531 1.533-1.531 0.281 0 0.545 0.076 0.771 0.208l-0.007-0.004c0.067 0.040 0.148 0.063 0.235 0.063 0.259 0 0.469-0.21 0.469-0.469 0-0.172-0.093-0.323-0.232-0.405l-0.002-0.001c-0.221-0.13-0.478-0.229-0.751-0.283l-0.016-0.003v-1.367c0.639-0.206 1.093-0.795 1.094-1.491v-0c0-0.699-0.462-1.293-1.097-1.492l0.009-0.974c0.002-0.159 0.116-0.291 0.267-0.321l0.002-0c1.687-0.352 2.912-1.866 2.912-3.6 0-1.991-1.668-3.674-3.643-3.675h-0.002c-1.423 0-2.748 0.903-3.376 2.3-0.026 0.056-0.041 0.122-0.041 0.192 0 0.259 0.21 0.469 0.469 0.469 0.189 0 0.352-0.112 0.426-0.274l0.001-0.003c0.477-1.061 1.467-1.747 2.522-1.747h0.002c1.306 0.001 2.705 1.101 2.705 2.738 0 1.292-0.911 2.421-2.166 2.683-0.58 0.119-1.011 0.624-1.015 1.229v0l-0.010 0.985c-0.637 0.207-1.090 0.796-1.091 1.49v0c0.001 0.695 0.455 1.284 1.083 1.487l0.011 0.003v1.367c-1.147 0.229-1.999 1.227-2 2.424v0c0.002 1.197 0.854 2.194 1.985 2.421l0.016 0.003v1.358h-2.264c-0.611 0-1.181 0.329-1.488 0.858l-2.73 4.719c-0.145 0.247-0.23 0.544-0.23 0.861s0.086 0.614 0.235 0.869l-0.004-0.008 2.73 4.719c0.304 0.516 0.856 0.857 1.487 0.858h5.465c0.611 0 1.181-0.329 1.488-0.858l2.73-4.719c0.145-0.247 0.23-0.544 0.23-0.861s-0.086-0.614-0.235-0.869l0.004 0.008-2.73-4.719zM7.375 9.437c0.331 0.018 0.592 0.291 0.592 0.625s-0.261 0.606-0.59 0.625l-0.002 0c-0.345-0.001-0.624-0.28-0.625-0.624v-0c0-0.345 0.28-0.625 0.625-0.625zM13.514 25.954l-2.73 4.719c-0.138 0.235-0.389 0.39-0.677 0.39h-5.464c-0.287-0.001-0.538-0.155-0.674-0.386l-0.002-0.004-2.731-4.719c-0.066-0.112-0.105-0.247-0.105-0.391s0.039-0.279 0.107-0.395l-0.002 0.004 2.73-4.719c0.138-0.235 0.389-0.39 0.677-0.39h5.464c0.277 0 0.537 0.149 0.676 0.39l2.73 4.719c0.066 0.112 0.105 0.247 0.105 0.391s-0.039 0.279-0.107 0.395l0.002-0.004z"></path>
<path d="M9.712 22.604c-0.193-0.329-0.545-0.546-0.947-0.547h-2.779c-0.403 0.001-0.754 0.218-0.944 0.542l-0.003 0.005-1.389 2.406c-0.092 0.157-0.146 0.346-0.146 0.547s0.054 0.39 0.149 0.552l-0.003-0.005 0.219 0.38c0.084 0.134 0.231 0.222 0.399 0.222 0.259 0 0.469-0.21 0.469-0.469 0-0.081-0.021-0.158-0.057-0.225l0.001 0.002-0.219-0.38c-0.013-0.022-0.021-0.049-0.021-0.078s0.008-0.056 0.021-0.079l-0 0.001 1.389-2.406c0.028-0.047 0.078-0.078 0.135-0.078h2.778c0.056 0 0.108 0.030 0.135 0.078l1.39 2.407c0.027 0.048 0.027 0.108 0 0.156l-1.39 2.406c-0.028 0.047-0.078 0.078-0.135 0.078h-2.778c-0.117 0.010-0.172-0.151-0.223-0.229-0.084-0.133-0.231-0.22-0.397-0.22-0.259 0-0.469 0.21-0.469 0.469 0 0.080 0.020 0.156 0.056 0.222l-0.001-0.003 0.087 0.151c0.193 0.329 0.545 0.547 0.948 0.547h2.778c0.403-0.001 0.754-0.218 0.944-0.542l0.003-0.005 1.39-2.406c0.092-0.157 0.146-0.346 0.146-0.547s-0.054-0.39-0.149-0.552l0.003 0.005-1.39-2.406zM31.575 24.702l-0.795-1.374c-0.083-0.141-0.233-0.234-0.406-0.234-0.259 0-0.469 0.21-0.469 0.469 0 0.086 0.023 0.167 0.064 0.237l-0.001-0.002 0.795 1.374c0.066 0.112 0.105 0.247 0.105 0.391s-0.039 0.279-0.107 0.395l0.002-0.004-2.73 4.719c-0.138 0.235-0.389 0.39-0.677 0.39h-5.463c-0.287-0-0.538-0.155-0.675-0.386l-0.002-0.004-2.73-4.719c-0.066-0.112-0.105-0.247-0.105-0.391s0.039-0.279 0.107-0.395l-0.002 0.004 2.729-4.719c0.138-0.235 0.389-0.39 0.677-0.39h5.464c0.278 0 0.537 0.149 0.676 0.39l0.85 1.47c0.083 0.141 0.233 0.234 0.406 0.234 0.259 0 0.469-0.21 0.469-0.469 0-0.086-0.023-0.167-0.064-0.237l0.001 0.002-0.85-1.47c-0.304-0.516-0.856-0.857-1.487-0.858h-2.263v-1.358c1.146-0.229 1.998-1.226 2-2.423v-0c-0.002-1.197-0.854-2.195-1.984-2.421l-0.016-0.003v-1.367c0.639-0.206 1.093-0.795 1.093-1.491v-0c0-0.699-0.462-1.293-1.097-1.492l0.010-0.974c0.002-0.159 0.116-0.291 0.267-0.321l0.002-0c1.687-0.352 2.912-1.866 2.912-3.6-0-0.147-0.009-0.291-0.025-0.433l0.002 0.017c-0.028-0.235-0.226-0.415-0.466-0.415-0.259 0-0.469 0.21-0.469 0.469 0 0.019 0.001 0.037 0.003 0.055l-0-0.002c0.011 0.102 0.017 0.206 0.017 0.309 0 1.293-0.911 2.421-2.166 2.683-0.58 0.119-1.010 0.623-1.015 1.229v0l-0.009 0.985c-0.637 0.207-1.090 0.795-1.091 1.49v0c0.001 0.695 0.455 1.284 1.083 1.487l0.011 0.003v1.367c-1.147 0.229-1.999 1.227-2 2.424v0c0.002 1.197 0.854 2.194 1.984 2.421l0.016 0.003v1.358h-2.263c-0.612 0-1.182 0.329-1.488 0.858l-2.73 4.719c-0.145 0.247-0.23 0.544-0.23 0.861s0.086 0.614 0.235 0.869l-0.004-0.008 2.73 4.719c0.304 0.516 0.856 0.857 1.488 0.858h5.464c0.611 0 1.181-0.329 1.488-0.858l2.73-4.719c0.145-0.247 0.23-0.544 0.23-0.861s-0.086-0.614-0.235-0.869l0.004 0.008zM24.625 9.438c0.335 0.013 0.601 0.288 0.601 0.625s-0.267 0.612-0.6 0.625l-0.001 0c-0.345-0.001-0.624-0.28-0.625-0.625v-0c0-0.345 0.28-0.625 0.625-0.625zM23.093 15.344c0.001-0.845 0.686-1.531 1.531-1.531h0c0.845 0.001 1.531 0.686 1.531 1.531v0c-0.001 0.845-0.686 1.531-1.531 1.531h-0c-0.845-0.001-1.531-0.686-1.531-1.531v-0zM21.495 2.92c0.231 0.105 0.514 0.003 0.62-0.235 0.477-1.062 1.466-1.748 2.521-1.748h0.002c0.67 0 1.348 0.283 1.86 0.775 0.085 0.085 0.202 0.137 0.331 0.137 0.259 0 0.469-0.21 0.469-0.469 0-0.136-0.058-0.258-0.15-0.344l-0-0c-0.684-0.658-1.599-1.037-2.508-1.037h-0.002c-1.424 0-2.749 0.903-3.377 2.3-0.026 0.057-0.041 0.123-0.041 0.192 0 0.189 0.112 0.352 0.274 0.426l0.003 0.001z"></path>
<path d="M26.014 22.057h-2.779c-0.403 0.001-0.754 0.218-0.944 0.542l-0.003 0.005-1.389 2.406c-0.092 0.157-0.146 0.346-0.146 0.547s0.054 0.39 0.149 0.552l-0.003-0.005 1.389 2.406c0.193 0.329 0.545 0.546 0.947 0.547h2.779c0.403-0.001 0.754-0.218 0.944-0.542l0.003-0.005 1.389-2.406c0.092-0.157 0.146-0.346 0.146-0.547s-0.054-0.39-0.149-0.552l0.003 0.005-1.39-2.406c-0.193-0.329-0.544-0.546-0.947-0.547h-0zM27.539 25.635l-1.39 2.406c-0.027 0.047-0.078 0.078-0.135 0.078h-2.779c-0.057-0-0.108-0.031-0.135-0.077l-0-0.001-1.389-2.407c-0.013-0.022-0.021-0.049-0.021-0.078s0.008-0.056 0.021-0.079l-0 0.001 1.39-2.406c0.027-0.047 0.078-0.078 0.135-0.078h2.779c0.056 0 0.107 0.030 0.135 0.078l1.389 2.407c0.027 0.048 0.027 0.108 0 0.156z"></path>
</symbol>
<symbol id="delivery" viewBox="0 0 32 32">
<path d="M28 17.987c-0.276 0-0.5 0.224-0.5 0.5v3.504h-0.795c-0.186-1.584-1.521-2.802-3.14-2.802s-2.954 1.218-3.138 2.787l-0.001 0.015h-10.425v-14.5h17.5v1.573c0 0.276 0.224 0.5 0.5 0.5s0.5-0.224 0.5-0.5v0-2.072c0-0.276-0.224-0.5-0.5-0.5h-18.5c-0.276 0-0.5 0.224-0.5 0.5v0.5h-5.726c-1.255 0.002-2.273 1.019-2.274 2.274v0.726c0 0.276 0.224 0.5 0.5 0.5h0.582l-0.381 4.582c-0.984 0.262-1.697 1.143-1.701 2.191v4.226c0 0.276 0.224 0.5 0.5 0.5h1.013c0.134 1.683 1.532 2.998 3.238 2.998s3.104-1.315 3.237-2.986l0.001-0.011c0.005 0 0.008 0.002 0.012 0.002h1c0 0.276 0.224 0.5 0.5 0.5h10.97c0.309 1.447 1.577 2.516 3.095 2.516s2.785-1.069 3.091-2.495l0.004-0.021h1.341c0.276 0 0.5-0.224 0.5-0.5v-4.006c0-0.276-0.224-0.5-0.5-0.5zM4.75 24.491c-1.243 0-2.25-1.007-2.25-2.25s1.007-2.25 2.25-2.25v0c1.243 0 2.25 1.007 2.25 2.25s-1.007 2.25-2.25 2.25v0zM9 21.49h-1c-0.032 0.003-0.062 0.010-0.090 0.019l0.003-0.001c-0.343-1.453-1.628-2.519-3.163-2.519-1.528 0-2.81 1.056-3.155 2.479l-0.005 0.022h-0.591v-3.726c0.001-0.703 0.57-1.273 1.273-1.274h6.726v5zM9 15.49h-6.29l0.375-4.5h5.915v4.5zM9 9.991h-6.999v-0.226c0.001-0.703 0.571-1.273 1.274-1.274h5.726v1.5zM25.722 22.471c-0.066 1.138-1.005 2.036-2.153 2.036-0.001 0-0.003 0-0.004 0h0c-1.061-0.002-1.942-0.769-2.122-1.778l-0.002-0.013c0.037-0.064 0.059-0.141 0.059-0.223 0-0.099-0.032-0.19-0.086-0.264l0.001 0.001c0.083-1.123 1.015-2.003 2.152-2.003 1.191 0 2.157 0.966 2.157 2.157 0 0.031-0.001 0.062-0.002 0.093l0-0.004z"></path>
<path d="M27.5 10.491h-7c-0.005-0-0.010-0-0.015-0-0.276 0-0.5 0.224-0.5 0.5s0.224 0.5 0.5 0.5c0.005 0 0.011-0 0.016-0l-0.001 0h7c0.27-0.008 0.485-0.229 0.485-0.5s-0.215-0.491-0.484-0.5l-0.001-0zM28.5 15.991h-11.001c-0.27 0.008-0.485 0.229-0.485 0.5s0.215 0.491 0.484 0.5l0.001 0h11c0.276 0 0.5-0.224 0.5-0.5s-0.224-0.5-0.5-0.5v0zM27.5 12.991h-5.5c-0.27 0.008-0.485 0.229-0.485 0.5s0.215 0.491 0.484 0.5l0.001 0h5.5c0.005 0 0.010 0 0.015 0 0.276 0 0.5-0.224 0.5-0.5s-0.224-0.5-0.5-0.5c-0.005 0-0.011 0-0.016 0l0.001-0zM29.5 11.49h1c0.27-0.008 0.485-0.229 0.485-0.5s-0.215-0.491-0.484-0.5l-0.001-0h-1.001c-0.27 0.008-0.485 0.229-0.485 0.5s0.215 0.491 0.484 0.5l0.001 0zM31 15.991h-1c-0.27 0.008-0.485 0.229-0.485 0.5s0.215 0.491 0.484 0.5l0.001 0h1c0.276 0 0.5-0.224 0.5-0.5s-0.224-0.5-0.5-0.5v0zM31.5 12.991h-2c-0.27 0.008-0.485 0.229-0.485 0.5s0.215 0.491 0.484 0.5l0.001 0h2c0.005 0 0.010 0 0.015 0 0.276 0 0.5-0.224 0.5-0.5s-0.224-0.5-0.5-0.5c-0.005 0-0.011 0-0.016 0l0.001-0z"></path>
</symbol>
<symbol id="search" viewBox="0 0 32 32">
<path d="M28 25.333l-6.872-6.872c0.963-1.445 1.536-3.22 1.536-5.13 0-5.155-4.179-9.333-9.333-9.333s-9.333 4.179-9.333 9.333c0 5.155 4.179 9.333 9.333 9.333 1.91 0 3.686-0.574 5.164-1.558l-0.034 0.021 6.872 6.872 2.667-2.667zM6.667 13.333c0-3.676 2.991-6.667 6.667-6.667s6.667 2.991 6.667 6.667-2.991 6.667-6.667 6.667-6.667-2.991-6.667-6.667z"></path>
</symbol>
</defs>
</svg>
